<svg width="30" height="31" viewBox="0 0 30 31" fill="none" xmlns="http://www.w3.org/2000/svg">
<path d="M14.757 15.4066C18.6983 15.4066 20.7738 10.4696 20.9598 7.94925C21.0918 6.13827 20.9238 3.6352 19.3461 2.00878C18.7802 1.46163 18.0998 1.03627 17.35 0.760861C16.6003 0.485451 15.7983 0.366265 14.997 0.411191C14.1957 0.366265 13.3937 0.485451 12.644 0.760861C11.8942 1.03627 11.2138 1.46163 10.6479 2.00878C9.07019 3.6352 8.90222 6.13827 9.03419 7.94925C9.19616 10.1467 11.0738 15.4066 14.757 15.4066ZM11.5237 2.79315C11.9809 2.36592 12.5263 2.03579 13.1246 1.82417C13.7229 1.61254 14.3609 1.52414 14.997 1.56468C15.6323 1.52358 16.2695 1.61175 16.8669 1.82342C17.4644 2.0351 18.0087 2.36553 18.4643 2.79315C19.748 4.11966 19.88 6.28246 19.76 7.86851C19.5957 9.2431 19.1383 10.5703 18.4163 11.7673C17.5885 13.1284 16.3707 14.2531 14.757 14.2531C12.0816 14.2531 10.3719 9.77753 10.234 7.86851C10.114 6.28246 10.2459 4.11966 11.5237 2.79315ZM30 24.9229C29.9987 23.7015 29.5242 22.5245 28.6691 21.6213C27.814 20.7181 26.6395 20.1536 25.3749 20.0378C23.3345 18.5265 20.8301 17.709 18.2543 17.7135H11.7397C8.6261 17.7135 5.64008 18.9027 3.43846 21.0194C1.23685 23.1361 0 26.007 0 29.0005V29.4965C0 29.7366 0.0992262 29.9669 0.27585 30.1367C0.452474 30.3065 0.692027 30.4019 0.941811 30.4019H29.0522C29.3017 30.4012 29.5408 30.3055 29.7173 30.1359C29.8937 29.9662 29.9932 29.7364 29.994 29.4965V29.0005C29.9951 28.1759 29.9006 27.3537 29.7121 26.5493C29.9032 26.0267 30.0005 25.4768 30 24.9229ZM1.19976 29.2485V29.0005C1.19976 26.3129 2.31021 23.7354 4.28682 21.835C6.26344 19.9347 8.9443 18.867 11.7397 18.867H18.2543C20.0924 18.8656 21.8985 19.329 23.4913 20.2109C22.5159 20.4813 21.6466 21.0254 20.9948 21.7737C20.343 22.522 19.9383 23.4403 19.8327 24.411C19.727 25.3817 19.9251 26.3607 20.4017 27.2225C20.8782 28.0843 21.6114 28.7897 22.5075 29.2485H1.19976ZM28.7942 29.0005V29.2485H27.2945C27.8492 28.9668 28.3437 28.5872 28.7522 28.1296C28.7822 28.4179 28.7942 28.7063 28.7942 29.0005ZM28.7942 24.9229C28.7957 25.45 28.6791 25.9713 28.4523 26.4512C28.1662 27.0673 27.7125 27.5977 27.139 27.9865C26.5656 28.3753 25.8936 28.6082 25.1939 28.6604C24.4943 28.7127 23.793 28.5825 23.1639 28.2835C22.5349 27.9845 22.0014 27.5279 21.6197 26.9617C21.2381 26.3955 21.0224 25.7408 20.9955 25.0667C20.9686 24.3925 21.1314 23.7238 21.4668 23.1312C21.8021 22.5386 22.2977 22.0439 22.901 21.6995C23.5044 21.355 24.1933 21.1735 24.895 21.174H24.937C25.466 21.1788 25.9883 21.2883 26.4713 21.4957C26.9543 21.7031 27.3877 22.0039 27.7444 22.3794C28.0743 22.7113 28.3349 23.1009 28.5123 23.5271C28.6978 23.9709 28.7935 24.4446 28.7942 24.9229ZM25.7229 26.3128L26.0528 26.6877L25.9688 26.78C25.7459 27.0378 25.4967 27.2735 25.225 27.4836C25.0959 27.5825 24.9394 27.6427 24.775 27.6566C24.7134 27.658 24.6524 27.6451 24.597 27.619C24.5417 27.5929 24.4937 27.5544 24.4571 27.5067C24.3836 27.41 24.3475 27.2917 24.3551 27.1722C24.4527 26.3101 24.6334 25.4586 24.895 24.6287C24.7692 24.7408 24.6529 24.8623 24.5471 24.9921L24.4451 25.1074L24.0732 24.7787L24.1572 24.6691C24.3457 24.4118 24.5767 24.1858 24.841 24.0001C25.219 23.7521 25.5369 23.7232 25.7049 23.879C25.7398 23.9132 25.7673 23.9538 25.7858 23.9983C25.8044 24.0429 25.8135 24.0905 25.8128 24.1385C25.7665 24.4923 25.6883 24.8416 25.5789 25.1824C25.4195 25.7243 25.2952 26.2752 25.207 26.8319C25.2789 26.7685 25.3989 26.6531 25.6029 26.4339L25.7229 26.3128ZM26.2328 22.3967C26.2377 22.4253 26.2397 22.4543 26.2388 22.4832C26.2399 22.6287 26.1915 22.7705 26.1008 22.887C26.0607 22.9456 26.0065 22.994 25.9428 23.0281C25.8791 23.0623 25.8078 23.0811 25.7349 23.083C25.6779 23.0845 25.6214 23.0727 25.5702 23.0486C25.519 23.0245 25.4746 22.9888 25.4409 22.9446C25.3673 22.8544 25.329 22.7421 25.3329 22.6274C25.3308 22.4818 25.3793 22.3397 25.4709 22.2237C25.5123 22.1672 25.5671 22.121 25.6307 22.089C25.6943 22.0569 25.765 22.0398 25.8368 22.0391C25.8614 22.0373 25.8861 22.0413 25.9088 22.0507C25.9531 22.0553 25.9959 22.069 26.0342 22.0909C26.0725 22.1127 26.1054 22.1423 26.1308 22.1776C26.1871 22.239 26.2227 22.3154 26.2328 22.3967Z" fill="black"/>
</svg>
