<svg width="39" height="33" viewBox="0 0 39 33" fill="none" xmlns="http://www.w3.org/2000/svg">
<path d="M36.3991 0H9.1375C8.0339 0 7.1363 0.80784 7.1363 1.80108V5.32836C6.9723 5.2308 6.7875 5.14836 6.5791 5.09364C6.2051 4.995 5.6115 4.95396 4.9083 5.319L4.9079 5.31936C4.7599 5.3964 4.6075 5.47452 4.4519 5.55408C3.0575 6.26904 1.4775 7.07904 0.816296 8.18712C-0.140504 9.78948 -0.268504 12.4261 0.497496 14.7485C1.9035 19.0156 4.3583 22.7272 7.7947 25.7807C11.1871 28.8731 15.3111 31.0824 20.0527 32.3478C21.1967 32.6534 22.3863 32.8039 23.5147 32.8039C24.9703 32.8039 26.3235 32.553 27.3427 32.0609C28.5767 31.4644 29.4775 30.0384 30.2723 28.7802C30.3587 28.6434 30.4439 28.5088 30.5271 28.3788C30.9343 27.7459 30.8891 27.2117 30.7799 26.8747C30.5427 26.1439 29.8475 25.7278 29.4551 25.5449L23.0635 22.5605C22.2287 22.1674 21.3679 22.293 20.9711 22.8658L19.4739 25.0225C19.3119 25.2562 19.0943 25.4437 18.6027 25.2353C16.4951 24.3367 13.8571 22.1648 12.8107 21.2638C12.7447 21.2015 12.6719 21.1327 12.5943 21.0586H36.3991C37.5027 21.0586 38.4003 20.2507 38.4003 19.2575V1.80108C38.4003 0.80784 37.5027 0 36.3991 0ZM26.1339 10.3244L37.1955 1.72332C37.1983 1.74888 37.2003 1.7748 37.2003 1.80108V18.9302L26.1339 10.3244ZM8.4003 16.0546C8.1683 15.611 8.3767 15.4152 8.63669 15.2694L11.0327 13.9223C11.6695 13.5648 11.8091 12.7904 11.3731 12.0406L8.3363 6.77196V1.80108C8.3363 1.77516 8.3379 1.7496 8.34109 1.7244L19.4023 10.3244L9.6555 17.9028C9.1571 17.2786 8.7103 16.6435 8.4003 16.0546ZM9.3479 1.08H36.1867L22.7683 11.5142L9.3479 1.08ZM5.5083 6.25464C5.7815 6.1128 6.0215 6.07212 6.2415 6.13008C6.5175 6.2028 6.79749 6.44688 6.9911 6.78384L10.3087 12.5395C10.4379 12.7616 10.4515 12.9755 10.3971 13.0061L9.1071 13.7315L4.9587 6.5376C4.9879 6.52248 5.0171 6.50772 5.0463 6.4926C5.2035 6.41196 5.3583 6.33276 5.5083 6.25464ZM22.5091 23.5188L28.9031 26.5043C29.2767 26.6782 29.5475 26.9298 29.6279 27.1778C29.6923 27.3758 29.6467 27.5918 29.4879 27.8384C29.4031 27.9709 29.3167 28.1074 29.2291 28.2463C29.2115 28.2744 29.1935 28.3025 29.1755 28.3309L21.1831 24.5995L21.9891 23.4382C22.0227 23.3896 22.2603 23.4018 22.5091 23.5188ZM18.0903 26.2127C19.0455 26.6173 19.9435 26.3866 20.4919 25.5949L20.5451 25.5182L28.5691 29.2644C28.0247 30.0632 27.4295 30.793 26.7751 31.109C25.2539 31.8438 22.6899 31.9255 20.3939 31.3121C15.8475 30.0989 11.8951 27.9814 8.6459 25.0189C8.6443 25.0171 8.6423 25.0157 8.6403 25.0139C5.3487 22.09 2.9963 18.5328 1.6483 14.441C0.966696 12.3739 1.0571 10.066 1.8739 8.69832C2.2251 8.10972 3.0351 7.57404 3.9219 7.08408L8.0859 14.3053L8.0011 14.3528C7.1211 14.8468 6.8647 15.655 7.3151 16.5157C8.3915 18.5609 10.9171 21.0463 11.9527 22.0198C11.9587 22.0255 11.9647 22.0309 11.9711 22.0363C13.0535 22.9691 15.8163 25.2432 18.0903 26.2127ZM11.5051 19.9793C11.1451 19.6085 10.7603 19.197 10.3811 18.7661L20.3203 11.038L22.3759 12.6364C22.4887 12.7238 22.6283 12.7678 22.7683 12.7678C22.9083 12.7678 23.0479 12.7238 23.1607 12.6364L25.2163 11.038L36.6615 19.9386C36.5791 19.9645 36.4911 19.9793 36.3991 19.9793H11.5051Z" fill="black"/>
</svg>
