<svg width="75" height="100" viewBox="0 0 75 100" fill="none" xmlns="http://www.w3.org/2000/svg">
<path d="M8.85002 26.26H17.26C17.78 26.26 18.21 25.83 18.21 25.31C18.21 24.79 17.78 24.36 17.26 24.36H8.85002C8.33002 24.36 7.90002 24.79 7.90002 25.31C7.90002 25.84 8.33002 26.26 8.85002 26.26Z" fill="black"/>
<path d="M20.8 26.26H47.86C48.38 26.26 48.81 25.83 48.81 25.31C48.81 24.79 48.38 24.36 47.86 24.36H20.8C20.28 24.36 19.85 24.79 19.85 25.31C19.85 25.84 20.28 26.26 20.8 26.26Z" fill="black"/>
<path d="M17.26 37.17C17.78 37.17 18.21 36.74 18.21 36.22C18.21 35.7 17.78 35.27 17.26 35.27H8.85002C8.33002 35.27 7.90002 35.7 7.90002 36.22C7.90002 36.74 8.33002 37.17 8.85002 37.17H17.26Z" fill="black"/>
<path d="M47.86 37.17C48.38 37.17 48.81 36.74 48.81 36.22C48.81 35.7 48.38 35.27 47.86 35.27H20.8C20.28 35.27 19.85 35.7 19.85 36.22C19.85 36.74 20.28 37.17 20.8 37.17H47.86Z" fill="black"/>
<path d="M17.59 46.17H9.17998C8.65998 46.17 8.22998 46.6 8.22998 47.12C8.22998 47.64 8.65998 48.07 9.17998 48.07H17.59C18.11 48.07 18.54 47.64 18.54 47.12C18.54 46.6 18.12 46.17 17.59 46.17Z" fill="black"/>
<path d="M49.1399 47.12C49.1399 46.6 48.7099 46.17 48.1899 46.17H21.1399C20.6199 46.17 20.1899 46.6 20.1899 47.12C20.1899 47.64 20.6199 48.07 21.1399 48.07H48.1999C48.7199 48.07 49.1399 47.65 49.1399 47.12Z" fill="black"/>
<path d="M17.59 57.08H9.17998C8.65998 57.08 8.22998 57.51 8.22998 58.03C8.22998 58.55 8.65998 58.98 9.17998 58.98H17.59C18.11 58.98 18.54 58.55 18.54 58.03C18.54 57.51 18.12 57.08 17.59 57.08Z" fill="black"/>
<path d="M33.6 57.91C36.36 56.15 39.89 56.2 42.59 58.05C42.75 58.16 42.94 58.22 43.13 58.22C43.43 58.22 43.73 58.08 43.92 57.81C44.22 57.38 44.1 56.79 43.67 56.49C40.34 54.21 35.99 54.15 32.58 56.32C32.14 56.6 32.01 57.19 32.29 57.63C32.57 58.07 33.16 58.19 33.6 57.91Z" fill="black"/>
<path d="M73.04 89.98L60.25 77.18C59.59 76.52 58.71 76.15 57.77 76.15V13.85C57.77 10.78 55.27 8.29 52.21 8.29H42.08V7.91C42.08 3.55 38.53 0 34.17 0H23.59C19.23 0 15.68 3.55 15.68 7.91V8.3H5.56C2.49 8.3 0 10.8 0 13.86V79.04C0 82.11 2.5 84.6 5.56 84.6H50.35C50.5 85.18 50.8 85.72 51.25 86.17L64.04 98.96C64.7 99.62 65.58 99.99 66.52 99.99C67.46 99.99 68.34 99.63 69 98.96L73.04 94.92C74.41 93.57 74.41 91.34 73.04 89.98ZM51.9 80.57L48.43 77.1C48.86 76.75 49.28 76.38 49.68 75.98C50.08 75.58 50.45 75.16 50.8 74.73L54.27 78.2L51.9 80.57ZM28.67 54.96C34.09 49.54 42.92 49.54 48.34 54.96C50.97 57.59 52.41 61.08 52.41 64.79C52.41 68.5 50.96 72 48.34 74.62C45.71 77.25 42.22 78.69 38.51 78.69C34.8 78.69 31.3 77.24 28.68 74.62C26.05 71.99 24.61 68.5 24.61 64.79C24.6 61.08 26.04 57.59 28.67 54.96ZM17.58 7.91C17.58 4.59 20.28 1.9 23.59 1.9H34.16C37.48 1.9 40.17 4.6 40.17 7.91V12.74C40.17 13.22 39.78 13.62 39.29 13.62H18.46C17.98 13.62 17.58 13.23 17.58 12.74V7.91ZM1.89 79.04V13.86C1.89 11.84 3.53 10.2 5.55 10.2H15.67V12.75C15.67 14.28 16.92 15.53 18.45 15.53H39.3C40.83 15.53 42.08 14.28 42.08 12.75V10.2H52.2C54.22 10.2 55.86 11.84 55.86 13.86V76.72C55.78 76.77 55.71 76.82 55.64 76.88L51.92 73.16C53.47 70.68 54.31 67.8 54.31 64.8C54.31 60.58 52.67 56.61 49.68 53.62C43.52 47.46 33.49 47.46 27.33 53.62C24.34 56.61 22.7 60.57 22.7 64.8C22.7 69.02 24.34 72.99 27.33 75.98C30.32 78.97 34.28 80.61 38.51 80.61C41.51 80.61 44.38 79.78 46.87 78.22L50.67 82.02C50.55 82.24 50.45 82.47 50.38 82.71H5.56C3.54 82.71 1.89 81.06 1.89 79.04ZM71.7 93.59L67.66 97.63C67.36 97.93 66.95 98.1 66.53 98.1C66.1 98.1 65.7 97.93 65.4 97.63L52.59 84.84C52.29 84.54 52.12 84.13 52.12 83.71C52.12 83.28 52.29 82.88 52.59 82.58L56.63 78.54C56.93 78.24 57.34 78.07 57.76 78.07C58.19 78.07 58.59 78.24 58.89 78.54L71.68 91.33C71.98 91.63 72.15 92.04 72.15 92.46C72.17 92.88 72 93.29 71.7 93.59Z" fill="black"/>
<path d="M59.6199 81.3C59.2499 80.93 58.6499 80.93 58.2799 81.3C57.9099 81.67 57.9099 82.27 58.2799 82.64L67.5899 91.95C67.7799 92.14 68.0199 92.23 68.2599 92.23C68.4999 92.23 68.7499 92.14 68.9299 91.95C69.2999 91.58 69.2999 90.98 68.9299 90.61L59.6199 81.3Z" fill="black"/>
</svg>
