<svg width="36" height="29" viewBox="0 0 36 29" fill="none" xmlns="http://www.w3.org/2000/svg">
<path d="M2.875 2.875L14.3268 11.523L14.3306 11.5262C15.6022 12.4587 16.2384 12.9252 16.9352 13.1054C17.5511 13.2647 18.1984 13.2647 18.8143 13.1054C19.5117 12.925 20.1498 12.4571 21.4236 11.523C21.4236 11.523 28.7689 5.88614 32.875 2.875M1 21.2504V7.00037C1 4.90017 1 3.84929 1.40873 3.04712C1.76825 2.34151 2.34151 1.76825 3.04712 1.40873C3.84929 1 4.90017 1 7.00037 1H28.7504C30.8506 1 31.8992 1 32.7014 1.40873C33.407 1.76825 33.9822 2.34151 34.3417 3.04712C34.75 3.8485 34.75 4.89811 34.75 6.99421V21.2567C34.75 23.3528 34.75 24.4009 34.3417 25.2023C33.9822 25.9079 33.407 26.4821 32.7014 26.8417C31.9 27.25 30.8519 27.25 28.7558 27.25H6.99421C4.89811 27.25 3.8485 27.25 3.04712 26.8417C2.34151 26.4821 1.76825 25.9079 1.40873 25.2023C1 24.4001 1 23.3506 1 21.2504Z" stroke="white" stroke-width="2" stroke-linecap="round" stroke-linejoin="round"/>
</svg>
