<svg width="90" height="90" viewBox="0 0 90 90" fill="none" xmlns="http://www.w3.org/2000/svg">
<path fill-rule="evenodd" clip-rule="evenodd" d="M10.5612 0H79.4388C85.2497 0 90 4.75032 90 10.5612V79.4388C90 85.2497 85.2497 90 79.4388 90H10.5612C4.75032 90 0 85.2497 0 79.4388V10.5612C0 4.75032 4.75032 0 10.5612 0ZM10.3272 83.5814H45.2357C45.8813 83.5814 46.4045 83.0581 46.4045 82.4125C46.4045 81.7669 45.8813 81.2437 45.2357 81.2437H10.3272C9.68162 81.2437 9.15838 81.7669 9.15838 82.4125C9.15838 83.0581 9.68182 83.5814 10.3272 83.5814ZM10.3272 76.224H80.144C80.7896 76.224 81.3129 75.7007 81.3129 75.0551C81.3129 74.4095 80.7896 73.8863 80.144 73.8863H10.3272C9.68162 73.8863 9.15838 74.4095 9.15838 75.0551C9.15838 75.7007 9.68182 76.224 10.3272 76.224ZM10.3272 68.8668H80.144C80.7896 68.8668 81.3129 68.3435 81.3129 67.6979C81.3129 67.0523 80.7896 66.5291 80.144 66.5291H10.3272C9.68162 66.5291 9.15838 67.0523 9.15838 67.6979C9.15838 68.3435 9.68182 68.8668 10.3272 68.8668ZM53.4547 57.3612H79.9101C80.5556 57.3612 81.0789 56.8379 81.0789 56.1923C81.0789 55.5468 80.5556 55.0235 79.9101 55.0235H53.4547C52.8092 55.0235 52.2859 55.5468 52.2859 56.1923C52.2859 56.8379 52.8092 57.3612 53.4547 57.3612ZM53.4547 50.004H79.9101C80.5556 50.004 81.0789 49.4807 81.0789 48.8351C81.0789 48.1895 80.5556 47.6663 79.9101 47.6663H53.4547C52.8092 47.6663 52.2859 48.1895 52.2859 48.8351C52.2859 49.4805 52.8092 50.004 53.4547 50.004ZM53.4547 42.6466H79.9101C80.5556 42.6466 81.0789 42.1233 81.0789 41.4777C81.0789 40.8321 80.5556 40.3089 79.9101 40.3089H53.4547C52.8092 40.3089 52.2859 40.8321 52.2859 41.4777C52.2859 42.1233 52.8092 42.6466 53.4547 42.6466ZM53.4547 35.2892H66.6824C67.328 35.2892 67.8512 34.7659 67.8512 34.1203C67.8512 33.4747 67.328 32.9515 66.6824 32.9515H53.4547C52.8092 32.9515 52.2859 33.4747 52.2859 34.1203C52.2859 34.7659 52.8092 35.2892 53.4547 35.2892ZM27.1948 32.4818C31.1036 32.4818 34.2731 35.6511 34.2731 39.5601C34.2731 41.7822 33.2466 43.7866 31.6064 45.0955C36.3935 46.8997 39.7126 51.5154 39.7126 56.7795V60.894L42.954 60.8723C42.9645 60.8618 42.9709 60.8447 42.9709 60.8236V29.4894L42.9006 29.4191H11.5664L11.496 29.4894V60.8234L11.5664 60.8938H14.7545V56.7793C14.7545 51.5355 18.0487 46.9336 22.8082 45.1151C19.4869 42.4886 19.191 37.554 22.1899 34.5551C23.4709 33.2741 25.2405 32.4818 27.1948 32.4818ZM30.547 36.2079C27.5692 33.2297 22.4544 35.3488 22.4544 39.5601C22.4544 43.7716 27.5692 45.8901 30.5472 42.9123C32.3982 41.0612 32.3982 38.0589 30.547 36.2079ZM37.3747 60.8938V56.7793C37.3747 51.2038 32.8091 46.6381 27.2336 46.6381C21.6582 46.6381 17.0924 51.204 17.0924 56.7793V60.8938H37.3747ZM11.5664 27.0812C10.246 27.0812 9.15838 28.1688 9.15838 29.4894V60.8234C9.15838 62.1501 10.2395 63.2314 11.5664 63.2314H42.9006C44.221 63.2314 45.3086 62.1438 45.3086 60.8234V29.4894C45.3086 28.1626 44.2272 27.0812 42.9006 27.0812H11.5664ZM10.7186 11.8866H17.6073C18.2529 11.8866 18.7761 11.3634 18.7761 10.7178C18.7761 10.0722 18.2529 9.54896 17.6073 9.54896H10.7186C10.073 9.54896 9.54974 10.0722 9.54974 10.7178C9.54974 11.3632 10.073 11.8866 10.7186 11.8866ZM24.9647 11.8866H36.0781C36.7237 11.8866 37.2469 11.3634 37.2469 10.7178C37.2469 10.0722 36.7237 9.54896 36.0781 9.54896H24.9647C24.3191 9.54896 23.7958 10.0722 23.7958 10.7178C23.7958 11.3632 24.3193 11.8866 24.9647 11.8866ZM87.6623 21.592H2.33766V79.4388C2.33766 83.9595 6.04052 87.6623 10.5612 87.6623H79.4388C83.9595 87.6623 87.6623 83.9595 87.6623 79.4388V21.592ZM2.33766 19.2542H87.6623V10.5612C87.6623 6.04052 83.9595 2.33766 79.4388 2.33766H10.5612C6.04052 2.33766 2.33766 6.04052 2.33766 10.5612V19.2542Z" fill="black"/>
</svg>
