<svg width="45" height="31" viewBox="0 0 45 31" fill="none" xmlns="http://www.w3.org/2000/svg">
<g clip-path="url(#clip0_1_2)">
<path d="M28.274 14.2413H26.7001C26.5511 13.5742 26.281 12.9516 25.8899 12.3824L26.9981 11.3151C27.1099 11.2084 27.1099 11.0394 26.9981 10.9415L25.6012 9.60741C25.4894 9.50068 25.3125 9.50068 25.21 9.60741L24.0925 10.6747C23.4965 10.31 22.8352 10.0521 22.1461 9.90092V8.39781C22.1461 8.24661 22.025 8.13098 21.8667 8.13098H19.883C19.7247 8.13098 19.6037 8.24661 19.6037 8.39781V9.90092C18.9052 10.0432 18.2533 10.3012 17.6573 10.6747L16.5397 9.60741C16.428 9.50068 16.251 9.50068 16.1486 9.60741L14.7516 10.9415C14.6958 10.9949 14.6678 11.0572 14.6678 11.1283C14.6678 11.1995 14.6958 11.2706 14.7516 11.3151L15.8692 12.3824C15.4874 12.9516 15.2173 13.5742 15.059 14.2413H13.4851C13.3268 14.2413 13.2057 14.3569 13.2057 14.5081V16.4025C13.2057 16.5537 13.3268 16.6694 13.4851 16.6694H15.059C15.208 17.3364 15.478 17.959 15.8692 18.5283L14.7516 19.5956C14.6958 19.6489 14.6678 19.7112 14.6678 19.7823C14.6678 19.8535 14.6958 19.9246 14.7516 19.9691L16.1486 21.3032C16.2603 21.41 16.4373 21.41 16.5397 21.3032L17.6573 20.2448C18.2533 20.6095 18.9052 20.8763 19.6037 21.0186V22.5128C19.6037 22.664 19.7247 22.7797 19.883 22.7797H21.8667C22.025 22.7797 22.1461 22.664 22.1461 22.5128V21.0097C22.8446 20.8674 23.4965 20.6095 24.0925 20.2359L25.21 21.2943C25.3218 21.4011 25.4987 21.4011 25.6012 21.2943L26.9981 19.9602C27.1099 19.8535 27.1099 19.6845 26.9981 19.5867L25.8899 18.5194C26.2717 17.9501 26.5418 17.3186 26.7001 16.6605H28.274C28.4323 16.6605 28.5534 16.5449 28.5534 16.3937V14.5081C28.5534 14.3569 28.4323 14.2413 28.274 14.2413ZM27.9946 16.1268H26.4673C26.3276 16.1268 26.2158 16.2158 26.1879 16.3492C26.0482 17.0963 25.7502 17.7811 25.2939 18.4037C25.2193 18.5105 25.2287 18.6528 25.3218 18.7417L26.4021 19.7734L25.4149 20.734L24.3346 19.7023C24.2415 19.6133 24.0925 19.5956 23.9807 19.6756C23.3288 20.1114 22.6117 20.396 21.8294 20.5294C21.6991 20.5561 21.5966 20.6629 21.5966 20.7963V22.246H20.1717V20.7874C20.1717 20.654 20.0786 20.5472 19.9389 20.5205C19.1566 20.3871 18.4395 20.1025 17.7876 19.6667C17.6759 19.5956 17.5269 19.6044 17.4338 19.6934L16.3535 20.734L15.3477 19.7734L16.428 18.7417C16.5211 18.6528 16.5397 18.5105 16.4559 18.4037C15.9996 17.7811 15.7015 17.0963 15.5619 16.3492C15.5339 16.2247 15.4222 16.1268 15.2825 16.1268H13.7551V14.7749H15.2825C15.4222 14.7749 15.5339 14.686 15.5619 14.5526C15.7015 13.8055 15.9996 13.1206 16.4559 12.498C16.5304 12.3913 16.5211 12.249 16.428 12.16L15.3477 11.1283L16.3535 10.1677L17.4338 11.1995C17.5269 11.2884 17.6759 11.3062 17.7876 11.2261C18.4395 10.7903 19.1566 10.5057 19.9389 10.3723C20.0693 10.3456 20.1717 10.2389 20.1717 10.1055V8.64684H21.5966V10.1055C21.5966 10.2389 21.6898 10.3456 21.8294 10.3723C22.6117 10.5057 23.3288 10.7903 23.9807 11.2261C24.0925 11.2973 24.2415 11.2884 24.3346 11.1995L25.4149 10.1677L26.4207 11.1283L25.3404 12.16C25.2473 12.249 25.2287 12.3913 25.3125 12.498C25.7688 13.1206 26.0668 13.8055 26.2065 14.5526C26.2345 14.6771 26.3462 14.7749 26.4859 14.7749H28.0132L27.9946 16.1268Z" fill="black"/>
<path d="M20.8795 12.4268C19.138 12.4268 17.7131 13.7788 17.7131 15.4509C17.7131 17.1141 19.1287 18.4749 20.8795 18.4749C22.6304 18.4749 24.0459 17.123 24.0459 15.4509C24.0459 13.7877 22.6304 12.4268 20.8795 12.4268ZM20.8795 17.9412C19.4453 17.9412 18.2719 16.8206 18.2719 15.4509C18.2719 14.0812 19.436 12.9605 20.8795 12.9605C22.3137 12.9605 23.4871 14.0812 23.4871 15.4509C23.4871 16.8295 22.323 17.9412 20.8795 17.9412Z" fill="black"/>
<path d="M44.9069 4.96465L41.9826 2.17188C41.9733 2.16299 41.9547 2.1452 41.9361 2.13631C41.9361 2.13631 41.9267 2.13631 41.9267 2.12741C41.9174 2.11852 41.9081 2.11852 41.8895 2.10963C41.8802 2.10963 41.8802 2.10963 41.8709 2.10073C41.8615 2.10073 41.8522 2.09184 41.8336 2.09184C41.815 2.09184 41.7964 2.08294 41.7777 2.08294H33.2005C33.0422 2.08294 32.9212 2.19857 32.9212 2.34977V5.72955H29.6058V1.45146C29.6058 1.30026 29.4847 1.18463 29.3264 1.18463H26.0389V0.668772C26.0389 0.517571 25.9178 0.401947 25.7595 0.401947H16.5863C16.428 0.401947 16.3069 0.517571 16.3069 0.668772V1.18463H13.0195C12.8611 1.18463 12.7401 1.30026 12.7401 1.45146V5.74734H8.70757C7.52483 5.74734 6.55629 6.66344 6.55629 7.80189V16.7672L4.10699 14.3747C4.05112 14.3213 3.98593 14.2946 3.91142 14.2946C3.83692 14.2946 3.76242 14.3213 3.71585 14.3747L0.0838162 17.8434C-0.0279387 17.9501 -0.0279387 18.1102 0.0838162 18.2169L0.968543 19.0886L10.2908 28.214C10.3187 28.2407 10.356 28.2585 10.3932 28.2762L16.13 30.3842C16.1672 30.3931 16.1952 30.4019 16.2324 30.4019C16.3069 30.4019 16.3721 30.3753 16.428 30.3308C16.5025 30.2596 16.5304 30.1529 16.4932 30.0551L14.7051 25.1722H33.6476C34.8303 25.1722 35.7988 24.2561 35.7988 23.1176V16.367H44.7206C44.8789 16.367 45 16.2513 45 16.1001V5.16032C44.9814 5.08917 44.9534 5.01801 44.9069 4.96465ZM42.0571 3.00794L44.078 4.93797H42.0571V3.00794ZM16.8657 1.45146V0.935597H25.4801V1.45146V2.28751H16.8657V1.45146ZM13.2895 1.71828H16.2976V2.55433C16.2976 2.70553 16.4187 2.82116 16.577 2.82116H25.7502C25.9085 2.82116 26.0296 2.70553 26.0296 2.55433V1.71828H29.0377V5.74734H13.2895V1.71828ZM6.63079 17.6033L13.6341 24.4429L13.8017 24.6118L13.0846 25.2789L4.85203 17.4165L5.65294 16.6516L6.63079 17.6033ZM12.6842 25.6436L11.7343 26.5152L3.52028 18.6705L4.45157 17.7811L12.6842 25.6436ZM1.369 18.715L0.67053 18.0302L3.91142 14.935L5.2618 16.2691L4.26531 17.2208L2.94288 18.4838C2.94288 18.4838 2.94288 18.4838 2.93357 18.4838C2.93357 18.4838 2.93357 18.4838 2.93357 18.4927L2.03022 19.3554L1.369 18.715ZM2.41204 19.7467L3.12914 19.0619L11.3338 26.8976L10.505 27.6625L2.41204 19.7467ZM15.7668 29.6815L13.5596 28.8722C13.6993 28.5786 13.8856 28.3207 14.137 28.0984C14.3885 27.8671 14.6772 27.6892 14.9938 27.5647L15.7668 29.6815ZM14.7982 27.0577C14.3978 27.2089 14.0439 27.4224 13.7365 27.707C13.4292 27.9827 13.1964 28.3118 13.0288 28.6765L11.0079 27.9383L14.0811 25.101L14.7982 27.0577ZM35.2214 23.1087C35.2214 23.9448 34.5043 24.6296 33.6289 24.6296H14.5002L14.463 24.514C14.4536 24.5051 14.4536 24.4873 14.4443 24.4784C14.4443 24.4695 14.435 24.4695 14.435 24.4606C14.4257 24.4429 14.4164 24.4251 14.3978 24.4162L7.11507 17.3008V7.7841C7.11507 6.94805 7.83216 6.2632 8.70757 6.2632H13.0195H29.3357H32.9212V16.0824C32.9212 16.2336 33.0422 16.3492 33.2005 16.3492H35.2308L35.2214 23.1087ZM44.4226 15.8244H35.5008H33.4799V6.01416V2.63438H41.4983V5.21369C41.4983 5.36489 41.6194 5.48051 41.7777 5.48051H44.4226V15.8244Z" fill="black"/>
<path d="M34.5975 7.01029C34.5975 7.16149 34.7186 7.27712 34.8769 7.27712H42.3924C42.5508 7.27712 42.6718 7.16149 42.6718 7.01029C42.6718 6.85909 42.5508 6.74347 42.3924 6.74347H34.8769C34.7279 6.74347 34.5975 6.86799 34.5975 7.01029Z" fill="black"/>
<path d="M42.3924 8.96707H34.8769C34.7186 8.96707 34.5975 9.0827 34.5975 9.2339C34.5975 9.3851 34.7186 9.50072 34.8769 9.50072H42.3924C42.5508 9.50072 42.6718 9.3851 42.6718 9.2339C42.6718 9.0827 42.5508 8.96707 42.3924 8.96707Z" fill="black"/>
<path d="M42.3924 11.1816H34.8769C34.7186 11.1816 34.5975 11.2973 34.5975 11.4485C34.5975 11.5997 34.7186 11.7153 34.8769 11.7153H42.3924C42.5508 11.7153 42.6718 11.5997 42.6718 11.4485C42.6718 11.2973 42.5508 11.1816 42.3924 11.1816Z" fill="black"/>
<path d="M42.3924 13.3964H34.8769C34.7186 13.3964 34.5975 13.512 34.5975 13.6632C34.5975 13.8144 34.7186 13.93 34.8769 13.93H42.3924C42.5508 13.93 42.6718 13.8144 42.6718 13.6632C42.6718 13.512 42.5508 13.3964 42.3924 13.3964Z" fill="black"/>
</g>
<defs>
<clipPath id="clip0_1_2">
<rect width="45" height="31" fill="white"/>
</clipPath>
</defs>
</svg>
